Coordinates
version=1
nRows=11
nColumns=63
inDegrees=yes

Units are S.I. units (second, meters, Newtons, ...)
If the header above contains a line with 'inDegrees', this indicates whether rotational values are in degrees (yes) or radians (no).

endheader
time	pelvis_tilt	pelvis_list	pelvis_rotation	pelvis_tx	pelvis_ty	pelvis_tz	hip_flexion_r	hip_adduction_r	hip_rotation_r	knee_angle_r	knee_angle_r_beta	ankle_angle_r	subtalar_angle_r	mtp_angle_r	hip_flexion_l	hip_adduction_l	hip_rotation_l	knee_angle_l	knee_angle_l_beta	ankle_angle_l	subtalar_angle_l	mtp_angle_l	L5_S1_Flex_Ext	L5_S1_Lat_Bending	L5_S1_axial_rotation	L4_L5_Flex_Ext	L4_L5_Lat_Bending	L4_L5_axial_rotation	L3_L4_Flex_Ext	L3_L4_Lat_Bending	L3_L4_axial_rotation	L2_L3_Flex_Ext	L2_L3_Lat_Bending	L2_L3_axial_rotation	L1_L2_Flex_Ext	L1_L2_Lat_Bending	L1_L2_axial_rotation	L1_T12_Flex_Ext	L1_T12_Lat_Bending	L1_T12_axial_rotation	Abs_r3	Abs_r2	Abs_r1	Abs_t1	Abs_t2	neck_flexion	neck_bending	neck_rotation	arm_flex_r	arm_add_r	arm_rot_r	elbow_flex_r	pro_sup_r	wrist_flex_r	wrist_dev_r	arm_flex_l	arm_add_l	arm_rot_l	elbow_flex_l	pro_sup_l	wrist_flex_l	wrist_dev_l
      0.65384615	     -0.38843374	     -3.62317293	     81.96701945	      0.16244422	      0.72269919	      0.77173385	      5.43554495	     -2.25776559	      2.52279852	      7.63634360	      0.13327934	     30.50490855	     11.57970162	      0.00000000	      3.96848698	      0.31064013	    -22.30960453	      6.68873256	      0.11674041	     29.04722175	     14.49378359	      0.00000000	      0.06429444	     -0.77403103	      2.45047739	      0.11940120	     -1.02946127	      2.60363223	      0.10562933	     -1.88197905	      2.60363223	      0.07348211	     -1.88197905	      2.14416772	      0.05970381	     -1.57840408	      1.99101288	      0.03673784	     -1.19897407	      1.83785804	      0.45924873	     -8.75599382	     13.62882012	      0.00000000	      0.00000000	     25.68947651	      6.22598757	    -20.66551134	     24.25816812	      2.50808103	     15.55244161	    123.68102152	     62.45502924	     12.93762747	     29.78065272	     23.63312982	     -8.40712499	    129.38476522	      6.18724264	      6.02069735	    -25.48264815	    -15.83500475
      0.67307692	     -0.50694601	     -3.59412585	     81.09133995	      0.16509067	      0.72368348	      0.76871130	      5.15421016	     -2.21743894	      3.75167670	      7.29762864	      0.12736765	     29.95975001	     11.12658550	      0.00000000	      3.35927414	      0.47629755	    -22.39546886	      6.08746881	      0.10624637	     28.04216038	     13.78803577	      0.00000000	      0.08536694	     -0.81661311	      2.55322589	      0.15853495	     -1.08609543	      2.71280250	      0.14024935	     -1.98551311	      2.71280250	      0.09756588	     -1.98551311	      2.23407265	      0.07927174	     -1.66523745	      2.07449603	      0.04877867	     -1.26493370	      1.91491942	      0.60976754	     -9.23769080	     14.20027641	      0.00000000	      0.00000000	     26.33509460	      6.37306655	    -21.85481091	     27.66227150	      4.40620940	     14.96799927	    128.56042361	     67.85374584	     11.22951254	     26.98573852	     22.31527278	     -9.29182452	    132.53545440	      6.75377789	      8.64451339	    -28.16925029	    -13.79136595
      0.69230769	     -0.48885292	     -3.51207066	     80.39548402	      0.16745259	      0.72476510	      0.76566570	      4.71569709	     -2.04367633	      5.34701274	      6.83804726	      0.11934644	     29.34616874	      9.98062132	      0.00000000	      2.67483849	      0.56874579	    -21.56261903	      5.38959389	      0.09406616	     27.14001456	     12.35031970	      0.00000000	      0.10346898	     -0.83923580	      2.63540650	      0.19215224	     -1.11618362	      2.80011940	      0.16998919	     -2.04051793	      2.80011940	      0.11825470	     -2.04051793	      2.30598068	      0.09608130	     -1.71136965	      2.14126778	      0.05912218	     -1.29997626	      1.97655487	      0.73906858	     -9.49360323	     14.65734031	      0.00000000	      0.00000000	     26.78033261	      6.60173859	    -22.61271589	     29.84200555	      5.88244872	     13.42917663	    132.12464687	     82.35136981	     13.44021047	     23.54505781	     20.80338708	     -9.91024283	    132.89120787	      7.08783138	      8.72612361	    -25.82330915	    -13.70333312
      0.71153846	     -0.38598895	     -3.32750129	     79.87235629	      0.16951315	      0.72587345	      0.76283432	      4.09011294	     -1.82751330	      6.76954855	      6.24580463	      0.10900986	     28.81700255	      8.91955256	      0.00000000	      1.89673040	      0.63438695	    -19.94483931	      4.57806527	      0.07990231	     26.32428566	     10.15156128	      0.00000000	      0.10720070	     -0.85748687	      2.66456633	      0.19908241	     -1.14045754	      2.83110172	      0.17612002	     -2.08489358	      2.83110172	      0.12251968	     -2.08489358	      2.33149554	      0.09954657	     -1.74858723	      2.16496014	      0.06125448	     -1.32824716	      1.99842475	      0.76572385	     -9.70006298	     14.81951854	      0.00000000	      0.00000000	     26.94385524	      7.45018752	    -23.10757632	     31.02123908	      6.26226977	     12.75459638	    134.19920398	     87.17779200	     15.02636644	     20.89554302	     19.31327470	    -10.46414530	    132.16665023	      7.80137164	      8.04700596	    -22.78201049	    -13.37144826
      0.73076923	     -0.38564562	     -3.17047508	     79.21419003	      0.17176971	      0.72683780	      0.76087285	      3.68749923	     -1.72488604	      7.77136873	      5.81482153	      0.10148778	     28.56144263	      8.75113676	      0.00000000	      1.26434630	      0.77250032	    -18.11158190	      3.77661116	      0.06591430	     25.71395682	      7.38305664	      0.00000000	      0.10783440	     -0.88980930	      2.68820188	      0.20025926	     -1.18344637	      2.85621450	      0.17716113	     -2.16348233	      2.85621450	      0.12324393	     -2.16348233	      2.35217665	      0.10013502	     -1.81449912	      2.18416403	      0.06161657	     -1.37831460	      2.01615141	      0.77025031	    -10.06570075	     14.95097241	      0.00000000	      0.00000000	     26.90163079	      8.44311127	    -23.40072082	     31.64778537	      6.67208292	     12.01512722	    136.20265870	     88.00218263	     18.80386074	     22.01848175	     17.92042614	    -11.28314822	    129.34144405	      8.86054434	      7.58557854	    -17.97254038	    -12.62694583
      0.75000000	     -0.45253005	     -3.02587894	     78.42009081	      0.17436683	      0.72759301	      0.75979249	      3.47535327	     -1.67616065	      8.56663014	      5.52155923	      0.09636939	     28.60559622	      9.18480272	      0.00000000	      0.83109132	      0.85318067	    -17.69645782	      3.21014354	      0.05602757	     25.65537174	      6.24320010	      0.00000000	      0.10786676	     -0.93474307	      2.65925830	      0.20031936	     -1.24320829	      2.82546195	      0.17721430	     -2.27273431	      2.82546195	      0.12328092	     -2.27273431	      2.32685102	      0.10016507	     -1.90612807	      2.16064737	      0.06163507	     -1.44791702	      1.99444373	      0.77048149	    -10.57400058	     14.78999691	      0.00000000	      0.00000000	     26.70551788	      9.68158755	    -23.35319419	     32.28751502	      7.13091326	     11.95964339	    138.14617795	     88.25616535	     21.89304421	     23.42701907	     16.43533453	    -12.36719153	    126.13548455	      9.87748275	      6.77013839	    -13.22579758	    -11.35046106
      0.76923077	     -0.54874845	     -2.83993519	     77.85541517	      0.17671352	      0.72810088	      0.75923284	      3.27397596	     -1.66568187	      9.27729312	      5.25816332	      0.09177226	     28.78523306	      9.49021356	      0.00000000	      0.50148862	      0.92711996	    -17.44302578	      2.79045417	      0.04870261	     25.87527848	      5.54600845	      0.00000000	      0.10418652	     -0.98399162	      2.52546631	      0.19348478	     -1.30870886	      2.68330796	      0.17116803	     -2.39247723	      2.68330796	      0.11907477	     -2.39247723	      2.20978302	      0.09674760	     -2.00655571	      2.05194138	      0.05953218	     -1.52420302	      1.89409974	      0.74419388	    -11.13111001	     14.04588600	      0.00000000	      0.00000000	     26.39410206	     11.04635655	    -22.66391289	     33.09347790	      7.77652535	     12.20661262	    139.86519001	     88.30057624	     24.86057686	     24.83110417	     14.83298339	    -13.56939372	    122.72734392	     10.82450838	      5.84205915	     -9.75639724	     -9.85659334
      0.78846154	     -0.69401408	     -2.62842576	     77.55663478	      0.17885776	      0.72835276	      0.75906848	      3.06040400	     -1.70807555	      9.90581664	      4.99346777	      0.08715245	     29.11144092	      9.56946569	      0.00000000	      0.27726750	      1.00982243	    -17.26171738	      2.56320132	      0.04473630	     26.20226244	      5.21677831	      0.00000000	      0.09515586	     -1.04210082	      2.35540119	      0.17671396	     -1.38599409	      2.50261376	      0.15633157	     -2.53376393	      2.50261376	      0.10875364	     -2.53376393	      2.06097604	      0.08836174	     -2.12505199	      1.91376347	      0.05437206	     -1.61421417	      1.76655089	      0.67968882	    -11.78845287	     13.10003479	      0.00000000	      0.00000000	     26.03382657	     12.36797692	    -21.76414856	     33.85830638	      8.46764410	     12.45244529	    141.28508953	     88.27629589	     27.46763493	     25.85565545	     13.33728547	    -14.67330600	    119.82250519	     11.40443390	      5.51118382	     -7.70606245	     -8.50499270
      0.80769231	     -0.86432701	     -2.43810352	     77.54671124	      0.18055490	      0.72849019	      0.75900294	      2.80911187	     -1.78891829	     10.50670432	      4.64335246	      0.08104179	     29.38285126	      9.26059992	      0.00000000	      0.17943583	      1.08813861	    -17.40048663	      2.55860485	      0.04465608	     26.53581006	      5.45791075	      0.00000000	      0.08833262	     -1.10348074	      2.17541648	      0.16404250	     -1.46762938	      2.31138001	      0.14512165	     -2.68300307	      2.31138001	      0.10095535	     -2.68300307	      1.90348942	      0.08202567	     -2.25021792	      1.76752589	      0.05047326	     -1.70929166	      1.63156236	      0.63095104	    -12.48279480	     12.09901385	      0.00000000	      0.00000000	     25.72710299	     13.58089492	    -20.92029656	     34.34026505	      9.04419501	     12.67578497	    142.34296594	     88.20036816	     29.38189672	     26.42245212	     12.09626131	    -15.56257288	    117.94705254	     11.59643028	      6.13624928	     -7.04932398	     -7.52513982
      0.82692308	     -0.88633035	     -2.32145416	     77.38169727	      0.18187526	      0.72843785	      0.75893260	      2.71093795	     -1.74967030	     10.86107899	      4.52342786	      0.07894871	     29.72288067	      9.44427458	      0.00000000	      0.11081040	      1.03663635	    -17.54268921	      2.61726219	      0.04567984	     26.80374495	      5.37086967	      0.00000000	      0.08654748	     -1.13933058	      2.06869328	      0.16072733	     -1.51530967	      2.19798661	      0.14218886	     -2.77016838	      2.19798661	      0.09891512	     -2.77016838	      1.81010662	      0.08036799	     -2.32332292	      1.68081329	      0.04945323	     -1.76482307	      1.55151996	      0.61820002	    -12.88833540	     11.50545144	      0.00000000	      0.00000000	     25.67986857	     13.91345128	    -20.91735680	     34.60269031	      9.15311952	     13.15618250	    143.10390555	     88.16675510	     29.53249897	     26.35460755	     11.25988383	    -16.14245313	    118.17983856	     11.58178086	      6.33019246	     -7.11412287	     -7.17907569
      0.84615385	     -1.19950951	     -2.28306571	     77.85163168	      0.18242548	      0.72835400	      0.75873430	      2.50413261	     -2.04392417	     11.02508736	      4.04153147	      0.07053803	     29.70331424	      8.94135205	      0.00000000	      0.32439427	      1.22541629	    -17.72606423	      2.97516135	      0.05192636	     27.00718412	      6.05258787	      0.00000000	      0.09700154	     -1.20215781	      1.77261906	      0.18014155	     -1.59886989	      1.88340775	      0.15936382	     -2.92292650	      1.88340775	      0.11086306	     -2.92292650	      1.55104168	      0.09007563	     -2.45144021	      1.44025299	      0.05542668	     -1.86214245	      1.32946430	      0.69287227	    -13.59904960	      9.85877544	      0.00000000	      0.00000000	     26.04142797	     15.60346426	    -19.29584879	     34.86385868	      9.82233237	     13.82716185	    143.14180844	     88.10857346	     29.71947701	     26.67182916	     10.41256590	    -16.53088034	    119.98766843	     10.74531864	      8.13861868	     -7.82585300	     -6.40556257
